<?xml version="1.0" encoding="utf-8"?>
<!-- Generator: Adobe Illustrator 25.4.1, SVG Export Plug-In . SVG Version: 6.00 Build 0)  -->
<svg version="1.1" id="Capa_1" xmlns="http://www.w3.org/2000/svg" xmlns:xlink="http://www.w3.org/1999/xlink" x="0px" y="0px"
	 viewBox="0 0 99 99" style="enable-background:new 0 0 99 99;" xml:space="preserve">
<path d="M65,58.6l5-12.4c4.4-0.3,5.9-7,5.9-12c0-1.8-1.4-3.2-3.1-3.4c-1.6,0-1.6,1.7-1.6,1.7v-0.2l2-11c0.3-1.1,0-2.2-0.7-3.1
	c-0.2-0.2-0.4-0.4-0.6-0.5c2.7-3.9,4.1-8.5,4-13.2H38.9c-7.7,0-14,6.3-14,14c0,0.5,0,1,0.1,1.6l2.9,12.3l0,0l-0.1-0.4
	c-0.2-0.7-0.8-1.1-1.5-1.1c-1.7,0.2-3.1,1.7-3.1,3.4c0,5,1.5,11.7,5.9,12l5,12.4v6.2l-3.1,1.6l0,0l0,0l-7.7,3l-1.7,0.6l0,0l-6.1,2.4
	l0,0l-4.6,1.8c-2.1,0.9-3.8,2.6-4.7,4.7L0,99h99l-6.2-20.2c-1-2.1-2.6-3.7-4.7-4.6l-4.6-1.8l0,0L77.4,70l0,0l-1.7-0.6l-7.7-3l0,0
	l0,0l-3.1-1.6L65,58.6L65,58.6z"/>
</svg>
