<svg xmlns="http://www.w3.org/2000/svg" viewBox="0 0 60 60"><title>60x60</title><rect width="60" height="60" rx="10" style="fill:#ccd5e0"/><polygon points="30.18 52.21 21.14 37.9 39.21 37.9 30.18 52.21" style="fill:#f2f2f2"/><path d="M32.17,37.9h-4a2.26,2.26,0,0,1-1.69-.75l-3.84-3v3.39s0,5.64,7.53,5.64,7.52-5.64,7.52-5.64V34.14l-3.84,3A2.26,2.26,0,0,1,32.17,37.9Z" style="fill:#f7b4b4"/><path d="M26.49,37.15l-3.84-3v3.39s0,5.64,7.53,5.64V37.9h-2A2.26,2.26,0,0,1,26.49,37.15Z" style="fill:#fac9c8"/><polygon points="21.14 37.9 22.65 37.15 30.16 40.9 25.66 45.43 21.14 37.9" style="fill:#fff"/><polygon points="39.21 37.9 37.7 37.15 30.19 40.9 34.69 45.43 39.21 37.9" style="fill:#fff"/><polygon points="33.19 52.21 31.08 44.53 32.43 43.18 30.16 40.9 27.9 43.16 29.27 44.52 27.16 52.21 33.19 52.21" style="fill:#9d1e22"/><polygon points="30.18 52.21 30.18 40.91 30.16 40.9 27.9 43.16 29.27 44.52 27.16 52.21 30.18 52.21" style="fill:#e82a2d"/><path d="M6.08,52.21l3-8.28a4.49,4.49,0,0,1,2.29-2.25l9.75-3.78,9,14.31Z" style="fill:#fff"/><path d="M54.27,52.21l-3-8.28A4.49,4.49,0,0,0,49,41.68L39.21,37.9l-9,14.31Z" style="fill:#fff"/><path d="M41.47,20.59c-.76,0-.76.84-.76.84v-.09H40V15.39c-1.77,1.67-4.58,2.94-9,2.94-6.93,0-10-3.81-10.48-4.43l-.06.18v7.26h-.75v5.27l3,7.53,3.84,3a2.26,2.26,0,0,0,1.69.75h4a2.26,2.26,0,0,0,1.69-.75l3.84-3,2.42-6C42.25,28,43,24.71,43,22.26A1.72,1.72,0,0,0,41.47,20.59Z" style="fill:#fac9c8"/><path d="M20.39,13.81c0,.06,0,.21,0,.27v7.26h-.75s0,.06-.05-.2a.7.7,0,0,0-.71-.55,1.72,1.72,0,0,0-1.5,1.67c0,2.45.72,5.69,2.85,5.85l2.42,6,3.84,3a2.26,2.26,0,0,0,1.69.75h2V18.31C23.78,18,20.82,14.4,20.39,13.81Z" style="fill:#fad7d7"/><polygon points="13.61 52.21 30.18 52.21 21.14 37.91 13.61 40.82 13.61 52.21" style="fill:#144e79"/><polygon points="46.74 52.21 30.18 52.21 39.21 37.91 46.74 40.82 46.74 52.21" style="fill:#144e79"/><polygon points="16.62 39.65 16.62 52.21 18.88 52.21 18.88 38.78 16.62 39.65" style="fill:#2876b5"/><polygon points="24.15 42.67 21.89 39.1 21.89 52.21 24.15 52.21 24.15 42.67" style="fill:#2876b5"/><polygon points="43.73 39.65 43.73 52.21 41.47 52.21 41.47 38.78 43.73 39.65" style="fill:#2876b5"/><polygon points="36.2 42.67 38.46 39.1 38.46 52.21 36.2 52.21 36.2 42.67" style="fill:#2876b5"/><path d="M26.41,29.62h7.53s0,2.26-3.76,2.26S26.41,29.62,26.41,29.62Z" style="fill:#f59393"/><path d="M41,14.18A10.53,10.53,0,0,0,43,7.79H25a6.84,6.84,0,0,0-6.79,7.58l1.42,6h.75V13.81s3,4.52,10.54,4.52c4.45,0,7.26-1.27,9-2.94v5.95h.75l1-5.34a1.75,1.75,0,0,0-.32-1.51A1.82,1.82,0,0,0,41,14.18Z" style="fill:#3f3f40"/><path d="M35.4,19.44H25c-.9,0-4.57.28-4.57,2.61s.94,4.56,3.26,4.56a5.4,5.4,0,0,0,5.2-4.8,2.1,2.1,0,0,1,1.32-.42h0a2.1,2.1,0,0,1,1.32.42,5.4,5.4,0,0,0,5.2,4.8C39,26.61,40,24.37,40,22.05S36.29,19.44,35.4,19.44Zm-6.57,1.61a1.52,1.52,0,0,0-.72-1h4.13a1.57,1.57,0,0,0-.72.95,3,3,0,0,0-1.34-.3A3.23,3.23,0,0,0,28.83,21.05Z" style="fill:#3f3f40"/><path d="M27.56,21a7.69,7.69,0,0,0-2.08-.25c-.74,0-3.79.21-3.79,1.88a3.61,3.61,0,0,0,1,2.69Z" style="fill:#5c5d60"/><path d="M32.79,21a7.69,7.69,0,0,1,2.08-.25c.74,0,3.79.21,3.79,1.88a3.61,3.61,0,0,1-1,2.69Z" style="fill:#5c5d60"/><rect x="37.33" y="45.65" width="7.12" height="3.22" rx="1.4" style="fill:#e82a2d"/><path d="M39.12,46.33a.27.27,0,0,1,0,.19.25.25,0,0,1-.13.12.47.47,0,0,1-.14.43.48.48,0,0,1-.43.08.24.24,0,0,1-.3,0,1,1,0,0,0,.81,1,.94.94,0,0,0,.25-1.87Zm-.64,1.16a.17.17,0,1,1,.14.19A.17.17,0,0,1,38.48,47.49Zm.74.31a.13.13,0,0,1-.15.11.13.13,0,0,1-.12-.15.13.13,0,0,1,.15-.11A.14.14,0,0,1,39.22,47.8Zm.44-.23a.13.13,0,0,1-.13.1.11.11,0,0,1-.09-.13.11.11,0,0,1,.12-.1A.12.12,0,0,1,39.66,47.57Zm-.25-.42a.18.18,0,0,1-.19.15.17.17,0,0,1-.14-.19.16.16,0,0,1,.18-.15A.17.17,0,0,1,39.41,47.15Zm0-.53a.1.1,0,0,1-.1.08.08.08,0,0,1-.07-.1.07.07,0,0,1,.09-.07A.09.09,0,0,1,39.37,46.62Z" style="fill:#fff"/><rect x="40.56" y="46.7" width="2.92" height="0.17" rx="0.07" style="fill:#fff"/><rect x="40.56" y="47.1" width="2.04" height="0.17" rx="0.07" style="fill:#fff"/><rect x="40.56" y="47.5" width="2.44" height="0.17" rx="0.07" style="fill:#fff"/><path d="M37.06,28.67a2.38,2.38,0,0,1-1.36,2.41A3.37,3.37,0,0,1,31.31,35a1.89,1.89,0,0,1-2.34.14,7.35,7.35,0,1,0,8.27-6.47Zm-5,9.06a1.28,1.28,0,1,1,1.1,1.44A1.28,1.28,0,0,1,32.08,37.73ZM37.8,40.1A1,1,0,1,1,36.92,39,1,1,0,0,1,37.8,40.1Zm3.46-1.78a.88.88,0,1,1-.75-1A.88.88,0,0,1,41.26,38.32Zm-1.95-3.26a1.31,1.31,0,0,1-2.6-.35,1.31,1.31,0,1,1,2.6.35ZM39,31a.67.67,0,0,1-1.33-.18A.67.67,0,1,1,39,31Z" style="fill:#74431b"/></svg>