<svg xmlns="http://www.w3.org/2000/svg" viewBox="0 0 60 59.99"><title>Icon</title><path d="M60,29.23A9.81,9.81,0,0,1,49.49,25,13.74,13.74,0,0,1,31.16,9.42C28.39,6.64,27.66,2.7,29.35,0A30,30,0,1,0,60,30C60,29.74,60,29.49,60,29.23ZM20.64,14a5.25,5.25,0,1,1-5.25,5.25A5.25,5.25,0,0,1,20.64,14ZM14.11,38.42a4.21,4.21,0,1,1,4.21-4.21A4.22,4.22,0,0,1,14.11,38.42Zm9.08,13a3.6,3.6,0,1,1,3.6-3.6A3.6,3.6,0,0,1,23.19,51.46ZM35.36,41.8a5.36,5.36,0,1,1,5.35-5.36A5.36,5.36,0,0,1,35.36,41.8Zm16.42-3.53a2.73,2.73,0,1,1,2.73-2.73A2.73,2.73,0,0,1,51.78,38.27Z"/></svg>