<svg xmlns="http://www.w3.org/2000/svg" viewBox="0 0 59.94 57.25"><title>Icon</title><path d="M39.33,32.78l3-7.51c2.65-.19,3.55-4.22,3.55-7.27A2.14,2.14,0,0,0,44,15.92c-.94,0-.94,1-.94,1v-.1l1.19-6.64a2.18,2.18,0,0,0-.4-1.88A2.06,2.06,0,0,0,43.48,8,13.17,13.17,0,0,0,45.89,0H23.54A8.49,8.49,0,0,0,15.1,9.43l1.76,7.43h0l-.06-.26a.87.87,0,0,0-.88-.68A2.13,2.13,0,0,0,14.05,18c0,3.05.89,7.08,3.55,7.27l3,7.51v3.74l-1.87.94,0,0,0,0-4.66,1.8-1,.38h0L9.37,41.09h0L6.6,42.16A5.58,5.58,0,0,0,3.75,45L0,57.25H59.94L56.19,45a5.62,5.62,0,0,0-2.85-2.79l-2.77-1.07h0l-3.74-1.45h0l-1-.38-4.65-1.8,0,0,0,0-1.88-.94V32.78M28.53,13Z"/></svg>