<svg xmlns="http://www.w3.org/2000/svg" viewBox="0 0 300 300"><title>300x300</title><rect width="300" height="300" rx="50" style="fill:#74431b"/><path d="M269,147a37.14,37.14,0,0,1-24.26-2,37.63,37.63,0,0,1-17.39-14.6,54.54,54.54,0,0,1-72.73-62c-11-11-13.89-26.66-7.2-37.36A119,119,0,1,0,269,150C269,149,269,148,269,147ZM112.86,86.38A20.84,20.84,0,1,1,92,107.21,20.83,20.83,0,0,1,112.86,86.38ZM87,183.41a16.71,16.71,0,1,1,16.7-16.7A16.71,16.71,0,0,1,87,183.41Zm36,51.75a14.26,14.26,0,1,1,14.26-14.26A14.26,14.26,0,0,1,123,235.16Zm48.26-38.34a21.25,21.25,0,1,1,21.25-21.25A21.24,21.24,0,0,1,171.25,196.82Zm65.17-14A10.83,10.83,0,1,1,247.25,172,10.82,10.82,0,0,1,236.42,182.84Z" style="fill:#fff"/></svg>